<?xml version="1.0" encoding="utf-8" standalone="no"?>
<!DOCTYPE svg PUBLIC "-//W3C//DTD SVG 1.1//EN"
  "http://www.w3.org/Graphics/SVG/1.1/DTD/svg11.dtd">
<!-- Created with matplotlib (https://matplotlib.org/) -->
<svg height="648pt" version="1.1" viewBox="0 0 1152 648" width="1152pt" xmlns="http://www.w3.org/2000/svg" xmlns:xlink="http://www.w3.org/1999/xlink">
 <defs>
  <style type="text/css">
*{stroke-linecap:butt;stroke-linejoin:round;}
  </style>
 </defs>
 <g id="figure_1">
  <g id="patch_1">
   <path d="M 0 648 
L 1152 648 
L 1152 0 
L 0 0 
z
" style="fill:#ffffff;"/>
  </g>
  <g id="axes_1">
   <g id="patch_2">
    <path d="M 144 567 
L 1036.8 567 
L 1036.8 77.76 
L 144 77.76 
z
" style="fill:#e5e5e5;"/>
   </g>
   <g id="matplotlib.axis_1">
    <g id="xtick_1">
     <g id="line2d_1">
      <path clip-path="url(#pcca6381c50)" d="M 184.581818 567 
L 184.581818 77.76 
" style="fill:none;stroke:#ffffff;stroke-linecap:square;stroke-width:0.8;"/>
     </g>
     <g id="line2d_2">
      <defs>
       <path d="M 0 0 
L 0 3.5 
" id="m42a59f93fc" style="stroke:#555555;stroke-width:0.8;"/>
      </defs>
      <g>
       <use style="fill:#555555;stroke:#555555;stroke-width:0.8;" x="184.581818" xlink:href="#m42a59f93fc" y="567"/>
      </g>
     </g>
     <g id="text_1">
      <!-- 0 -->
      <defs>
       <path d="M 31.78125 66.40625 
Q 24.171875 66.40625 20.328125 58.90625 
Q 16.5 51.421875 16.5 36.375 
Q 16.5 21.390625 20.328125 13.890625 
Q 24.171875 6.390625 31.78125 6.390625 
Q 39.453125 6.390625 43.28125 13.890625 
Q 47.125 21.390625 47.125 36.375 
Q 47.125 51.421875 43.28125 58.90625 
Q 39.453125 66.40625 31.78125 66.40625 
z
M 31.78125 74.21875 
Q 44.046875 74.21875 50.515625 64.515625 
Q 56.984375 54.828125 56.984375 36.375 
Q 56.984375 17.96875 50.515625 8.265625 
Q 44.046875 -1.421875 31.78125 -1.421875 
Q 19.53125 -1.421875 13.0625 8.265625 
Q 6.59375 17.96875 6.59375 36.375 
Q 6.59375 54.828125 13.0625 64.515625 
Q 19.53125 74.21875 31.78125 74.21875 
z
" id="DejaVuSans-48"/>
      </defs>
      <g style="fill:#555555;" transform="translate(177.583068 590.716563)scale(0.22 -0.22)">
       <use xlink:href="#DejaVuSans-48"/>
      </g>
     </g>
    </g>
    <g id="xtick_2">
     <g id="line2d_3">
      <path clip-path="url(#pcca6381c50)" d="M 354.380221 567 
L 354.380221 77.76 
" style="fill:none;stroke:#ffffff;stroke-linecap:square;stroke-width:0.8;"/>
     </g>
     <g id="line2d_4">
      <g>
       <use style="fill:#555555;stroke:#555555;stroke-width:0.8;" x="354.380221" xlink:href="#m42a59f93fc" y="567"/>
      </g>
     </g>
     <g id="text_2">
      <!-- 50 -->
      <defs>
       <path d="M 10.796875 72.90625 
L 49.515625 72.90625 
L 49.515625 64.59375 
L 19.828125 64.59375 
L 19.828125 46.734375 
Q 21.96875 47.46875 24.109375 47.828125 
Q 26.265625 48.1875 28.421875 48.1875 
Q 40.625 48.1875 47.75 41.5 
Q 54.890625 34.8125 54.890625 23.390625 
Q 54.890625 11.625 47.5625 5.09375 
Q 40.234375 -1.421875 26.90625 -1.421875 
Q 22.3125 -1.421875 17.546875 -0.640625 
Q 12.796875 0.140625 7.71875 1.703125 
L 7.71875 11.625 
Q 12.109375 9.234375 16.796875 8.0625 
Q 21.484375 6.890625 26.703125 6.890625 
Q 35.15625 6.890625 40.078125 11.328125 
Q 45.015625 15.765625 45.015625 23.390625 
Q 45.015625 31 40.078125 35.4375 
Q 35.15625 39.890625 26.703125 39.890625 
Q 22.75 39.890625 18.8125 39.015625 
Q 14.890625 38.140625 10.796875 36.28125 
z
" id="DejaVuSans-53"/>
      </defs>
      <g style="fill:#555555;" transform="translate(340.382721 590.716563)scale(0.22 -0.22)">
       <use xlink:href="#DejaVuSans-53"/>
       <use x="63.623047" xlink:href="#DejaVuSans-48"/>
      </g>
     </g>
    </g>
    <g id="xtick_3">
     <g id="line2d_5">
      <path clip-path="url(#pcca6381c50)" d="M 524.178623 567 
L 524.178623 77.76 
" style="fill:none;stroke:#ffffff;stroke-linecap:square;stroke-width:0.8;"/>
     </g>
     <g id="line2d_6">
      <g>
       <use style="fill:#555555;stroke:#555555;stroke-width:0.8;" x="524.178623" xlink:href="#m42a59f93fc" y="567"/>
      </g>
     </g>
     <g id="text_3">
      <!-- 100 -->
      <defs>
       <path d="M 12.40625 8.296875 
L 28.515625 8.296875 
L 28.515625 63.921875 
L 10.984375 60.40625 
L 10.984375 69.390625 
L 28.421875 72.90625 
L 38.28125 72.90625 
L 38.28125 8.296875 
L 54.390625 8.296875 
L 54.390625 0 
L 12.40625 0 
z
" id="DejaVuSans-49"/>
      </defs>
      <g style="fill:#555555;" transform="translate(503.182373 590.716563)scale(0.22 -0.22)">
       <use xlink:href="#DejaVuSans-49"/>
       <use x="63.623047" xlink:href="#DejaVuSans-48"/>
       <use x="127.246094" xlink:href="#DejaVuSans-48"/>
      </g>
     </g>
    </g>
    <g id="xtick_4">
     <g id="line2d_7">
      <path clip-path="url(#pcca6381c50)" d="M 693.977025 567 
L 693.977025 77.76 
" style="fill:none;stroke:#ffffff;stroke-linecap:square;stroke-width:0.8;"/>
     </g>
     <g id="line2d_8">
      <g>
       <use style="fill:#555555;stroke:#555555;stroke-width:0.8;" x="693.977025" xlink:href="#m42a59f93fc" y="567"/>
      </g>
     </g>
     <g id="text_4">
      <!-- 150 -->
      <g style="fill:#555555;" transform="translate(672.980775 590.716563)scale(0.22 -0.22)">
       <use xlink:href="#DejaVuSans-49"/>
       <use x="63.623047" xlink:href="#DejaVuSans-53"/>
       <use x="127.246094" xlink:href="#DejaVuSans-48"/>
      </g>
     </g>
    </g>
    <g id="xtick_5">
     <g id="line2d_9">
      <path clip-path="url(#pcca6381c50)" d="M 863.775428 567 
L 863.775428 77.76 
" style="fill:none;stroke:#ffffff;stroke-linecap:square;stroke-width:0.8;"/>
     </g>
     <g id="line2d_10">
      <g>
       <use style="fill:#555555;stroke:#555555;stroke-width:0.8;" x="863.775428" xlink:href="#m42a59f93fc" y="567"/>
      </g>
     </g>
     <g id="text_5">
      <!-- 200 -->
      <defs>
       <path d="M 19.1875 8.296875 
L 53.609375 8.296875 
L 53.609375 0 
L 7.328125 0 
L 7.328125 8.296875 
Q 12.9375 14.109375 22.625 23.890625 
Q 32.328125 33.6875 34.8125 36.53125 
Q 39.546875 41.84375 41.421875 45.53125 
Q 43.3125 49.21875 43.3125 52.78125 
Q 43.3125 58.59375 39.234375 62.25 
Q 35.15625 65.921875 28.609375 65.921875 
Q 23.96875 65.921875 18.8125 64.3125 
Q 13.671875 62.703125 7.8125 59.421875 
L 7.8125 69.390625 
Q 13.765625 71.78125 18.9375 73 
Q 24.125 74.21875 28.421875 74.21875 
Q 39.75 74.21875 46.484375 68.546875 
Q 53.21875 62.890625 53.21875 53.421875 
Q 53.21875 48.921875 51.53125 44.890625 
Q 49.859375 40.875 45.40625 35.40625 
Q 44.1875 33.984375 37.640625 27.21875 
Q 31.109375 20.453125 19.1875 8.296875 
z
" id="DejaVuSans-50"/>
      </defs>
      <g style="fill:#555555;" transform="translate(842.779178 590.716563)scale(0.22 -0.22)">
       <use xlink:href="#DejaVuSans-50"/>
       <use x="63.623047" xlink:href="#DejaVuSans-48"/>
       <use x="127.246094" xlink:href="#DejaVuSans-48"/>
      </g>
     </g>
    </g>
    <g id="xtick_6">
     <g id="line2d_11">
      <path clip-path="url(#pcca6381c50)" d="M 1033.57383 567 
L 1033.57383 77.76 
" style="fill:none;stroke:#ffffff;stroke-linecap:square;stroke-width:0.8;"/>
     </g>
     <g id="line2d_12">
      <g>
       <use style="fill:#555555;stroke:#555555;stroke-width:0.8;" x="1033.57383" xlink:href="#m42a59f93fc" y="567"/>
      </g>
     </g>
     <g id="text_6">
      <!-- 250 -->
      <g style="fill:#555555;" transform="translate(1012.57758 590.716563)scale(0.22 -0.22)">
       <use xlink:href="#DejaVuSans-50"/>
       <use x="63.623047" xlink:href="#DejaVuSans-53"/>
       <use x="127.246094" xlink:href="#DejaVuSans-48"/>
      </g>
     </g>
    </g>
    <g id="text_7">
     <!-- trial -->
     <defs>
      <path d="M 18.3125 70.21875 
L 18.3125 54.6875 
L 36.8125 54.6875 
L 36.8125 47.703125 
L 18.3125 47.703125 
L 18.3125 18.015625 
Q 18.3125 11.328125 20.140625 9.421875 
Q 21.96875 7.515625 27.59375 7.515625 
L 36.8125 7.515625 
L 36.8125 0 
L 27.59375 0 
Q 17.1875 0 13.234375 3.875 
Q 9.28125 7.765625 9.28125 18.015625 
L 9.28125 47.703125 
L 2.6875 47.703125 
L 2.6875 54.6875 
L 9.28125 54.6875 
L 9.28125 70.21875 
z
" id="DejaVuSans-116"/>
      <path d="M 41.109375 46.296875 
Q 39.59375 47.171875 37.8125 47.578125 
Q 36.03125 48 33.890625 48 
Q 26.265625 48 22.1875 43.046875 
Q 18.109375 38.09375 18.109375 28.8125 
L 18.109375 0 
L 9.078125 0 
L 9.078125 54.6875 
L 18.109375 54.6875 
L 18.109375 46.1875 
Q 20.953125 51.171875 25.484375 53.578125 
Q 30.03125 56 36.53125 56 
Q 37.453125 56 38.578125 55.875 
Q 39.703125 55.765625 41.0625 55.515625 
z
" id="DejaVuSans-114"/>
      <path d="M 9.421875 54.6875 
L 18.40625 54.6875 
L 18.40625 0 
L 9.421875 0 
z
M 9.421875 75.984375 
L 18.40625 75.984375 
L 18.40625 64.59375 
L 9.421875 64.59375 
z
" id="DejaVuSans-105"/>
      <path d="M 34.28125 27.484375 
Q 23.390625 27.484375 19.1875 25 
Q 14.984375 22.515625 14.984375 16.5 
Q 14.984375 11.71875 18.140625 8.90625 
Q 21.296875 6.109375 26.703125 6.109375 
Q 34.1875 6.109375 38.703125 11.40625 
Q 43.21875 16.703125 43.21875 25.484375 
L 43.21875 27.484375 
z
M 52.203125 31.203125 
L 52.203125 0 
L 43.21875 0 
L 43.21875 8.296875 
Q 40.140625 3.328125 35.546875 0.953125 
Q 30.953125 -1.421875 24.3125 -1.421875 
Q 15.921875 -1.421875 10.953125 3.296875 
Q 6 8.015625 6 15.921875 
Q 6 25.140625 12.171875 29.828125 
Q 18.359375 34.515625 30.609375 34.515625 
L 43.21875 34.515625 
L 43.21875 35.40625 
Q 43.21875 41.609375 39.140625 45 
Q 35.0625 48.390625 27.6875 48.390625 
Q 23 48.390625 18.546875 47.265625 
Q 14.109375 46.140625 10.015625 43.890625 
L 10.015625 52.203125 
Q 14.9375 54.109375 19.578125 55.046875 
Q 24.21875 56 28.609375 56 
Q 40.484375 56 46.34375 49.84375 
Q 52.203125 43.703125 52.203125 31.203125 
z
" id="DejaVuSans-97"/>
      <path d="M 9.421875 75.984375 
L 18.40625 75.984375 
L 18.40625 0 
L 9.421875 0 
z
" id="DejaVuSans-108"/>
     </defs>
     <g style="fill:#555555;" transform="translate(564.375375 619.35175)scale(0.264 -0.264)">
      <use xlink:href="#DejaVuSans-116"/>
      <use x="39.208984" xlink:href="#DejaVuSans-114"/>
      <use x="80.322266" xlink:href="#DejaVuSans-105"/>
      <use x="108.105469" xlink:href="#DejaVuSans-97"/>
      <use x="169.384766" xlink:href="#DejaVuSans-108"/>
     </g>
    </g>
   </g>
   <g id="matplotlib.axis_2">
    <g id="ytick_1">
     <g id="line2d_13">
      <path clip-path="url(#pcca6381c50)" d="M 144 567.379506 
L 1036.8 567.379506 
" style="fill:none;stroke:#ffffff;stroke-linecap:square;stroke-width:0.8;"/>
     </g>
     <g id="line2d_14">
      <defs>
       <path d="M 0 0 
L -3.5 0 
" id="ma97c7059c8" style="stroke:#555555;stroke-width:0.8;"/>
      </defs>
      <g>
       <use style="fill:#555555;stroke:#555555;stroke-width:0.8;" x="144" xlink:href="#ma97c7059c8" y="567.379506"/>
      </g>
     </g>
     <g id="text_8">
      <!-- 0 -->
      <g style="fill:#555555;" transform="translate(123.0025 575.737787)scale(0.22 -0.22)">
       <use xlink:href="#DejaVuSans-48"/>
      </g>
     </g>
    </g>
    <g id="ytick_2">
     <g id="line2d_15">
      <path clip-path="url(#pcca6381c50)" d="M 144 491.478331 
L 1036.8 491.478331 
" style="fill:none;stroke:#ffffff;stroke-linecap:square;stroke-width:0.8;"/>
     </g>
     <g id="line2d_16">
      <g>
       <use style="fill:#555555;stroke:#555555;stroke-width:0.8;" x="144" xlink:href="#ma97c7059c8" y="491.478331"/>
      </g>
     </g>
     <g id="text_9">
      <!-- 200 -->
      <g style="fill:#555555;" transform="translate(95.0075 499.836612)scale(0.22 -0.22)">
       <use xlink:href="#DejaVuSans-50"/>
       <use x="63.623047" xlink:href="#DejaVuSans-48"/>
       <use x="127.246094" xlink:href="#DejaVuSans-48"/>
      </g>
     </g>
    </g>
    <g id="ytick_3">
     <g id="line2d_17">
      <path clip-path="url(#pcca6381c50)" d="M 144 415.577155 
L 1036.8 415.577155 
" style="fill:none;stroke:#ffffff;stroke-linecap:square;stroke-width:0.8;"/>
     </g>
     <g id="line2d_18">
      <g>
       <use style="fill:#555555;stroke:#555555;stroke-width:0.8;" x="144" xlink:href="#ma97c7059c8" y="415.577155"/>
      </g>
     </g>
     <g id="text_10">
      <!-- 400 -->
      <defs>
       <path d="M 37.796875 64.3125 
L 12.890625 25.390625 
L 37.796875 25.390625 
z
M 35.203125 72.90625 
L 47.609375 72.90625 
L 47.609375 25.390625 
L 58.015625 25.390625 
L 58.015625 17.1875 
L 47.609375 17.1875 
L 47.609375 0 
L 37.796875 0 
L 37.796875 17.1875 
L 4.890625 17.1875 
L 4.890625 26.703125 
z
" id="DejaVuSans-52"/>
      </defs>
      <g style="fill:#555555;" transform="translate(95.0075 423.935437)scale(0.22 -0.22)">
       <use xlink:href="#DejaVuSans-52"/>
       <use x="63.623047" xlink:href="#DejaVuSans-48"/>
       <use x="127.246094" xlink:href="#DejaVuSans-48"/>
      </g>
     </g>
    </g>
    <g id="ytick_4">
     <g id="line2d_19">
      <path clip-path="url(#pcca6381c50)" d="M 144 339.67598 
L 1036.8 339.67598 
" style="fill:none;stroke:#ffffff;stroke-linecap:square;stroke-width:0.8;"/>
     </g>
     <g id="line2d_20">
      <g>
       <use style="fill:#555555;stroke:#555555;stroke-width:0.8;" x="144" xlink:href="#ma97c7059c8" y="339.67598"/>
      </g>
     </g>
     <g id="text_11">
      <!-- 600 -->
      <defs>
       <path d="M 33.015625 40.375 
Q 26.375 40.375 22.484375 35.828125 
Q 18.609375 31.296875 18.609375 23.390625 
Q 18.609375 15.53125 22.484375 10.953125 
Q 26.375 6.390625 33.015625 6.390625 
Q 39.65625 6.390625 43.53125 10.953125 
Q 47.40625 15.53125 47.40625 23.390625 
Q 47.40625 31.296875 43.53125 35.828125 
Q 39.65625 40.375 33.015625 40.375 
z
M 52.59375 71.296875 
L 52.59375 62.3125 
Q 48.875 64.0625 45.09375 64.984375 
Q 41.3125 65.921875 37.59375 65.921875 
Q 27.828125 65.921875 22.671875 59.328125 
Q 17.53125 52.734375 16.796875 39.40625 
Q 19.671875 43.65625 24.015625 45.921875 
Q 28.375 48.1875 33.59375 48.1875 
Q 44.578125 48.1875 50.953125 41.515625 
Q 57.328125 34.859375 57.328125 23.390625 
Q 57.328125 12.15625 50.6875 5.359375 
Q 44.046875 -1.421875 33.015625 -1.421875 
Q 20.359375 -1.421875 13.671875 8.265625 
Q 6.984375 17.96875 6.984375 36.375 
Q 6.984375 53.65625 15.1875 63.9375 
Q 23.390625 74.21875 37.203125 74.21875 
Q 40.921875 74.21875 44.703125 73.484375 
Q 48.484375 72.75 52.59375 71.296875 
z
" id="DejaVuSans-54"/>
      </defs>
      <g style="fill:#555555;" transform="translate(95.0075 348.034262)scale(0.22 -0.22)">
       <use xlink:href="#DejaVuSans-54"/>
       <use x="63.623047" xlink:href="#DejaVuSans-48"/>
       <use x="127.246094" xlink:href="#DejaVuSans-48"/>
      </g>
     </g>
    </g>
    <g id="ytick_5">
     <g id="line2d_21">
      <path clip-path="url(#pcca6381c50)" d="M 144 263.774805 
L 1036.8 263.774805 
" style="fill:none;stroke:#ffffff;stroke-linecap:square;stroke-width:0.8;"/>
     </g>
     <g id="line2d_22">
      <g>
       <use style="fill:#555555;stroke:#555555;stroke-width:0.8;" x="144" xlink:href="#ma97c7059c8" y="263.774805"/>
      </g>
     </g>
     <g id="text_12">
      <!-- 800 -->
      <defs>
       <path d="M 31.78125 34.625 
Q 24.75 34.625 20.71875 30.859375 
Q 16.703125 27.09375 16.703125 20.515625 
Q 16.703125 13.921875 20.71875 10.15625 
Q 24.75 6.390625 31.78125 6.390625 
Q 38.8125 6.390625 42.859375 10.171875 
Q 46.921875 13.96875 46.921875 20.515625 
Q 46.921875 27.09375 42.890625 30.859375 
Q 38.875 34.625 31.78125 34.625 
z
M 21.921875 38.8125 
Q 15.578125 40.375 12.03125 44.71875 
Q 8.5 49.078125 8.5 55.328125 
Q 8.5 64.0625 14.71875 69.140625 
Q 20.953125 74.21875 31.78125 74.21875 
Q 42.671875 74.21875 48.875 69.140625 
Q 55.078125 64.0625 55.078125 55.328125 
Q 55.078125 49.078125 51.53125 44.71875 
Q 48 40.375 41.703125 38.8125 
Q 48.828125 37.15625 52.796875 32.3125 
Q 56.78125 27.484375 56.78125 20.515625 
Q 56.78125 9.90625 50.3125 4.234375 
Q 43.84375 -1.421875 31.78125 -1.421875 
Q 19.734375 -1.421875 13.25 4.234375 
Q 6.78125 9.90625 6.78125 20.515625 
Q 6.78125 27.484375 10.78125 32.3125 
Q 14.796875 37.15625 21.921875 38.8125 
z
M 18.3125 54.390625 
Q 18.3125 48.734375 21.84375 45.5625 
Q 25.390625 42.390625 31.78125 42.390625 
Q 38.140625 42.390625 41.71875 45.5625 
Q 45.3125 48.734375 45.3125 54.390625 
Q 45.3125 60.0625 41.71875 63.234375 
Q 38.140625 66.40625 31.78125 66.40625 
Q 25.390625 66.40625 21.84375 63.234375 
Q 18.3125 60.0625 18.3125 54.390625 
z
" id="DejaVuSans-56"/>
      </defs>
      <g style="fill:#555555;" transform="translate(95.0075 272.133086)scale(0.22 -0.22)">
       <use xlink:href="#DejaVuSans-56"/>
       <use x="63.623047" xlink:href="#DejaVuSans-48"/>
       <use x="127.246094" xlink:href="#DejaVuSans-48"/>
      </g>
     </g>
    </g>
    <g id="ytick_6">
     <g id="line2d_23">
      <path clip-path="url(#pcca6381c50)" d="M 144 187.87363 
L 1036.8 187.87363 
" style="fill:none;stroke:#ffffff;stroke-linecap:square;stroke-width:0.8;"/>
     </g>
     <g id="line2d_24">
      <g>
       <use style="fill:#555555;stroke:#555555;stroke-width:0.8;" x="144" xlink:href="#ma97c7059c8" y="187.87363"/>
      </g>
     </g>
     <g id="text_13">
      <!-- 1000 -->
      <g style="fill:#555555;" transform="translate(81.01 196.231911)scale(0.22 -0.22)">
       <use xlink:href="#DejaVuSans-49"/>
       <use x="63.623047" xlink:href="#DejaVuSans-48"/>
       <use x="127.246094" xlink:href="#DejaVuSans-48"/>
       <use x="190.869141" xlink:href="#DejaVuSans-48"/>
      </g>
     </g>
    </g>
    <g id="ytick_7">
     <g id="line2d_25">
      <path clip-path="url(#pcca6381c50)" d="M 144 111.972455 
L 1036.8 111.972455 
" style="fill:none;stroke:#ffffff;stroke-linecap:square;stroke-width:0.8;"/>
     </g>
     <g id="line2d_26">
      <g>
       <use style="fill:#555555;stroke:#555555;stroke-width:0.8;" x="144" xlink:href="#ma97c7059c8" y="111.972455"/>
      </g>
     </g>
     <g id="text_14">
      <!-- 1200 -->
      <g style="fill:#555555;" transform="translate(81.01 120.330736)scale(0.22 -0.22)">
       <use xlink:href="#DejaVuSans-49"/>
       <use x="63.623047" xlink:href="#DejaVuSans-50"/>
       <use x="127.246094" xlink:href="#DejaVuSans-48"/>
       <use x="190.869141" xlink:href="#DejaVuSans-48"/>
      </g>
     </g>
    </g>
    <g id="text_15">
     <!-- reaction time [ms] -->
     <defs>
      <path d="M 56.203125 29.59375 
L 56.203125 25.203125 
L 14.890625 25.203125 
Q 15.484375 15.921875 20.484375 11.0625 
Q 25.484375 6.203125 34.421875 6.203125 
Q 39.59375 6.203125 44.453125 7.46875 
Q 49.3125 8.734375 54.109375 11.28125 
L 54.109375 2.78125 
Q 49.265625 0.734375 44.1875 -0.34375 
Q 39.109375 -1.421875 33.890625 -1.421875 
Q 20.796875 -1.421875 13.15625 6.1875 
Q 5.515625 13.8125 5.515625 26.8125 
Q 5.515625 40.234375 12.765625 48.109375 
Q 20.015625 56 32.328125 56 
Q 43.359375 56 49.78125 48.890625 
Q 56.203125 41.796875 56.203125 29.59375 
z
M 47.21875 32.234375 
Q 47.125 39.59375 43.09375 43.984375 
Q 39.0625 48.390625 32.421875 48.390625 
Q 24.90625 48.390625 20.390625 44.140625 
Q 15.875 39.890625 15.1875 32.171875 
z
" id="DejaVuSans-101"/>
      <path d="M 48.78125 52.59375 
L 48.78125 44.1875 
Q 44.96875 46.296875 41.140625 47.34375 
Q 37.3125 48.390625 33.40625 48.390625 
Q 24.65625 48.390625 19.8125 42.84375 
Q 14.984375 37.3125 14.984375 27.296875 
Q 14.984375 17.28125 19.8125 11.734375 
Q 24.65625 6.203125 33.40625 6.203125 
Q 37.3125 6.203125 41.140625 7.25 
Q 44.96875 8.296875 48.78125 10.40625 
L 48.78125 2.09375 
Q 45.015625 0.34375 40.984375 -0.53125 
Q 36.96875 -1.421875 32.421875 -1.421875 
Q 20.0625 -1.421875 12.78125 6.34375 
Q 5.515625 14.109375 5.515625 27.296875 
Q 5.515625 40.671875 12.859375 48.328125 
Q 20.21875 56 33.015625 56 
Q 37.15625 56 41.109375 55.140625 
Q 45.0625 54.296875 48.78125 52.59375 
z
" id="DejaVuSans-99"/>
      <path d="M 30.609375 48.390625 
Q 23.390625 48.390625 19.1875 42.75 
Q 14.984375 37.109375 14.984375 27.296875 
Q 14.984375 17.484375 19.15625 11.84375 
Q 23.34375 6.203125 30.609375 6.203125 
Q 37.796875 6.203125 41.984375 11.859375 
Q 46.1875 17.53125 46.1875 27.296875 
Q 46.1875 37.015625 41.984375 42.703125 
Q 37.796875 48.390625 30.609375 48.390625 
z
M 30.609375 56 
Q 42.328125 56 49.015625 48.375 
Q 55.71875 40.765625 55.71875 27.296875 
Q 55.71875 13.875 49.015625 6.21875 
Q 42.328125 -1.421875 30.609375 -1.421875 
Q 18.84375 -1.421875 12.171875 6.21875 
Q 5.515625 13.875 5.515625 27.296875 
Q 5.515625 40.765625 12.171875 48.375 
Q 18.84375 56 30.609375 56 
z
" id="DejaVuSans-111"/>
      <path d="M 54.890625 33.015625 
L 54.890625 0 
L 45.90625 0 
L 45.90625 32.71875 
Q 45.90625 40.484375 42.875 44.328125 
Q 39.84375 48.1875 33.796875 48.1875 
Q 26.515625 48.1875 22.3125 43.546875 
Q 18.109375 38.921875 18.109375 30.90625 
L 18.109375 0 
L 9.078125 0 
L 9.078125 54.6875 
L 18.109375 54.6875 
L 18.109375 46.1875 
Q 21.34375 51.125 25.703125 53.5625 
Q 30.078125 56 35.796875 56 
Q 45.21875 56 50.046875 50.171875 
Q 54.890625 44.34375 54.890625 33.015625 
z
" id="DejaVuSans-110"/>
      <path id="DejaVuSans-32"/>
      <path d="M 52 44.1875 
Q 55.375 50.25 60.0625 53.125 
Q 64.75 56 71.09375 56 
Q 79.640625 56 84.28125 50.015625 
Q 88.921875 44.046875 88.921875 33.015625 
L 88.921875 0 
L 79.890625 0 
L 79.890625 32.71875 
Q 79.890625 40.578125 77.09375 44.375 
Q 74.3125 48.1875 68.609375 48.1875 
Q 61.625 48.1875 57.5625 43.546875 
Q 53.515625 38.921875 53.515625 30.90625 
L 53.515625 0 
L 44.484375 0 
L 44.484375 32.71875 
Q 44.484375 40.625 41.703125 44.40625 
Q 38.921875 48.1875 33.109375 48.1875 
Q 26.21875 48.1875 22.15625 43.53125 
Q 18.109375 38.875 18.109375 30.90625 
L 18.109375 0 
L 9.078125 0 
L 9.078125 54.6875 
L 18.109375 54.6875 
L 18.109375 46.1875 
Q 21.1875 51.21875 25.484375 53.609375 
Q 29.78125 56 35.6875 56 
Q 41.65625 56 45.828125 52.96875 
Q 50 49.953125 52 44.1875 
z
" id="DejaVuSans-109"/>
      <path d="M 8.59375 75.984375 
L 29.296875 75.984375 
L 29.296875 69 
L 17.578125 69 
L 17.578125 -6.203125 
L 29.296875 -6.203125 
L 29.296875 -13.1875 
L 8.59375 -13.1875 
z
" id="DejaVuSans-91"/>
      <path d="M 44.28125 53.078125 
L 44.28125 44.578125 
Q 40.484375 46.53125 36.375 47.5 
Q 32.28125 48.484375 27.875 48.484375 
Q 21.1875 48.484375 17.84375 46.4375 
Q 14.5 44.390625 14.5 40.28125 
Q 14.5 37.15625 16.890625 35.375 
Q 19.28125 33.59375 26.515625 31.984375 
L 29.59375 31.296875 
Q 39.15625 29.25 43.1875 25.515625 
Q 47.21875 21.78125 47.21875 15.09375 
Q 47.21875 7.46875 41.1875 3.015625 
Q 35.15625 -1.421875 24.609375 -1.421875 
Q 20.21875 -1.421875 15.453125 -0.5625 
Q 10.6875 0.296875 5.421875 2 
L 5.421875 11.28125 
Q 10.40625 8.6875 15.234375 7.390625 
Q 20.0625 6.109375 24.8125 6.109375 
Q 31.15625 6.109375 34.5625 8.28125 
Q 37.984375 10.453125 37.984375 14.40625 
Q 37.984375 18.0625 35.515625 20.015625 
Q 33.0625 21.96875 24.703125 23.78125 
L 21.578125 24.515625 
Q 13.234375 26.265625 9.515625 29.90625 
Q 5.8125 33.546875 5.8125 39.890625 
Q 5.8125 47.609375 11.28125 51.796875 
Q 16.75 56 26.8125 56 
Q 31.78125 56 36.171875 55.265625 
Q 40.578125 54.546875 44.28125 53.078125 
z
" id="DejaVuSans-115"/>
      <path d="M 30.421875 75.984375 
L 30.421875 -13.1875 
L 9.71875 -13.1875 
L 9.71875 -6.203125 
L 21.390625 -6.203125 
L 21.390625 69 
L 9.71875 69 
L 9.71875 75.984375 
z
" id="DejaVuSans-93"/>
     </defs>
     <g style="fill:#555555;" transform="translate(71.519625 444.80175)rotate(-90)scale(0.264 -0.264)">
      <use xlink:href="#DejaVuSans-114"/>
      <use x="41.082031" xlink:href="#DejaVuSans-101"/>
      <use x="102.605469" xlink:href="#DejaVuSans-97"/>
      <use x="163.884766" xlink:href="#DejaVuSans-99"/>
      <use x="218.865234" xlink:href="#DejaVuSans-116"/>
      <use x="258.074219" xlink:href="#DejaVuSans-105"/>
      <use x="285.857422" xlink:href="#DejaVuSans-111"/>
      <use x="347.039062" xlink:href="#DejaVuSans-110"/>
      <use x="410.417969" xlink:href="#DejaVuSans-32"/>
      <use x="442.205078" xlink:href="#DejaVuSans-116"/>
      <use x="481.414062" xlink:href="#DejaVuSans-105"/>
      <use x="509.197266" xlink:href="#DejaVuSans-109"/>
      <use x="606.609375" xlink:href="#DejaVuSans-101"/>
      <use x="668.132812" xlink:href="#DejaVuSans-32"/>
      <use x="699.919922" xlink:href="#DejaVuSans-91"/>
      <use x="738.933594" xlink:href="#DejaVuSans-109"/>
      <use x="836.345703" xlink:href="#DejaVuSans-115"/>
      <use x="888.445312" xlink:href="#DejaVuSans-93"/>
     </g>
    </g>
   </g>
   <g id="line2d_27">
    <defs>
     <path d="M 0 3 
C 0.795609 3 1.55874 2.683901 2.12132 2.12132 
C 2.683901 1.55874 3 0.795609 3 0 
C 3 -0.795609 2.683901 -1.55874 2.12132 -2.12132 
C 1.55874 -2.683901 0.795609 -3 0 -3 
C -0.795609 -3 -1.55874 -2.683901 -2.12132 -2.12132 
C -2.683901 -1.55874 -3 -0.795609 -3 0 
C -3 0.795609 -2.683901 1.55874 -2.12132 2.12132 
C -1.55874 2.683901 -0.795609 3 0 3 
z
" id="m4245611c85" style="stroke:#e24a33;"/>
    </defs>
    <g clip-path="url(#pcca6381c50)">
     <use style="fill:#e24a33;stroke:#e24a33;" x="184.581818" xlink:href="#m4245611c85" y="100.207773"/>
     <use style="fill:#e24a33;stroke:#e24a33;" x="187.977786" xlink:href="#m4245611c85" y="302.484404"/>
     <use style="fill:#e24a33;stroke:#e24a33;" x="191.373754" xlink:href="#m4245611c85" y="247.456052"/>
     <use style="fill:#e24a33;stroke:#e24a33;" x="194.769722" xlink:href="#m4245611c85" y="286.545158"/>
     <use style="fill:#e24a33;stroke:#e24a33;" x="198.16569" xlink:href="#m4245611c85" y="314.628592"/>
     <use style="fill:#e24a33;stroke:#e24a33;" x="204.957626" xlink:href="#m4245611c85" y="352.57918"/>
     <use style="fill:#e24a33;stroke:#e24a33;" x="208.353595" xlink:href="#m4245611c85" y="327.152286"/>
     <use style="fill:#e24a33;stroke:#e24a33;" x="211.749563" xlink:href="#m4245611c85" y="323.357228"/>
     <use style="fill:#e24a33;stroke:#e24a33;" x="215.145531" xlink:href="#m4245611c85" y="322.21871"/>
     <use style="fill:#e24a33;stroke:#e24a33;" x="218.541499" xlink:href="#m4245611c85" y="307.417981"/>
     <use style="fill:#e24a33;stroke:#e24a33;" x="221.937467" xlink:href="#m4245611c85" y="368.138921"/>
     <use style="fill:#e24a33;stroke:#e24a33;" x="228.729403" xlink:href="#m4245611c85" y="342.712027"/>
     <use style="fill:#e24a33;stroke:#e24a33;" x="232.125371" xlink:href="#m4245611c85" y="352.57918"/>
     <use style="fill:#e24a33;stroke:#e24a33;" x="235.521339" xlink:href="#m4245611c85" y="322.598216"/>
     <use style="fill:#e24a33;stroke:#e24a33;" x="238.917307" xlink:href="#m4245611c85" y="353.338192"/>
     <use style="fill:#e24a33;stroke:#e24a33;" x="245.709243" xlink:href="#m4245611c85" y="356.374239"/>
     <use style="fill:#e24a33;stroke:#e24a33;" x="249.105211" xlink:href="#m4245611c85" y="327.531792"/>
     <use style="fill:#e24a33;stroke:#e24a33;" x="252.501179" xlink:href="#m4245611c85" y="293.376263"/>
     <use style="fill:#e24a33;stroke:#e24a33;" x="255.897147" xlink:href="#m4245611c85" y="335.12191"/>
     <use style="fill:#e24a33;stroke:#e24a33;" x="259.293115" xlink:href="#m4245611c85" y="345.748074"/>
     <use style="fill:#e24a33;stroke:#e24a33;" x="262.689083" xlink:href="#m4245611c85" y="361.687321"/>
     <use style="fill:#e24a33;stroke:#e24a33;" x="266.085051" xlink:href="#m4245611c85" y="392.427297"/>
     <use style="fill:#e24a33;stroke:#e24a33;" x="269.481019" xlink:href="#m4245611c85" y="377.247062"/>
     <use style="fill:#e24a33;stroke:#e24a33;" x="272.876987" xlink:href="#m4245611c85" y="398.119885"/>
     <use style="fill:#e24a33;stroke:#e24a33;" x="276.272955" xlink:href="#m4245611c85" y="399.637909"/>
     <use style="fill:#e24a33;stroke:#e24a33;" x="279.668924" xlink:href="#m4245611c85" y="327.911298"/>
     <use style="fill:#e24a33;stroke:#e24a33;" x="286.46086" xlink:href="#m4245611c85" y="401.155932"/>
     <use style="fill:#e24a33;stroke:#e24a33;" x="289.856828" xlink:href="#m4245611c85" y="325.634263"/>
     <use style="fill:#e24a33;stroke:#e24a33;" x="293.252796" xlink:href="#m4245611c85" y="311.21304"/>
     <use style="fill:#e24a33;stroke:#e24a33;" x="296.648764" xlink:href="#m4245611c85" y="349.163627"/>
     <use style="fill:#e24a33;stroke:#e24a33;" x="300.044732" xlink:href="#m4245611c85" y="365.48238"/>
     <use style="fill:#e24a33;stroke:#e24a33;" x="303.4407" xlink:href="#m4245611c85" y="361.687321"/>
     <use style="fill:#e24a33;stroke:#e24a33;" x="306.836668" xlink:href="#m4245611c85" y="405.710003"/>
     <use style="fill:#e24a33;stroke:#e24a33;" x="310.232636" xlink:href="#m4245611c85" y="408.74605"/>
     <use style="fill:#e24a33;stroke:#e24a33;" x="320.42054" xlink:href="#m4245611c85" y="384.078168"/>
     <use style="fill:#e24a33;stroke:#e24a33;" x="323.816508" xlink:href="#m4245611c85" y="327.531792"/>
     <use style="fill:#e24a33;stroke:#e24a33;" x="327.212476" xlink:href="#m4245611c85" y="350.681651"/>
     <use style="fill:#e24a33;stroke:#e24a33;" x="330.608444" xlink:href="#m4245611c85" y="355.235721"/>
     <use style="fill:#e24a33;stroke:#e24a33;" x="334.004412" xlink:href="#m4245611c85" y="334.742404"/>
     <use style="fill:#e24a33;stroke:#e24a33;" x="337.40038" xlink:href="#m4245611c85" y="357.892262"/>
     <use style="fill:#e24a33;stroke:#e24a33;" x="340.796348" xlink:href="#m4245611c85" y="342.712027"/>
     <use style="fill:#e24a33;stroke:#e24a33;" x="344.192316" xlink:href="#m4245611c85" y="368.138921"/>
     <use style="fill:#e24a33;stroke:#e24a33;" x="347.588285" xlink:href="#m4245611c85" y="394.324826"/>
     <use style="fill:#e24a33;stroke:#e24a33;" x="350.984253" xlink:href="#m4245611c85" y="378.765086"/>
     <use style="fill:#e24a33;stroke:#e24a33;" x="354.380221" xlink:href="#m4245611c85" y="422.408261"/>
     <use style="fill:#e24a33;stroke:#e24a33;" x="357.776189" xlink:href="#m4245611c85" y="411.023085"/>
     <use style="fill:#e24a33;stroke:#e24a33;" x="361.172157" xlink:href="#m4245611c85" y="341.57351"/>
     <use style="fill:#e24a33;stroke:#e24a33;" x="364.568125" xlink:href="#m4245611c85" y="389.39125"/>
     <use style="fill:#e24a33;stroke:#e24a33;" x="367.964093" xlink:href="#m4245611c85" y="384.83718"/>
     <use style="fill:#e24a33;stroke:#e24a33;" x="371.360061" xlink:href="#m4245611c85" y="304.76144"/>
     <use style="fill:#e24a33;stroke:#e24a33;" x="374.756029" xlink:href="#m4245611c85" y="329.808828"/>
     <use style="fill:#e24a33;stroke:#e24a33;" x="381.547965" xlink:href="#m4245611c85" y="352.57918"/>
     <use style="fill:#e24a33;stroke:#e24a33;" x="384.943933" xlink:href="#m4245611c85" y="354.097204"/>
     <use style="fill:#e24a33;stroke:#e24a33;" x="388.339901" xlink:href="#m4245611c85" y="317.664639"/>
     <use style="fill:#e24a33;stroke:#e24a33;" x="391.735869" xlink:href="#m4245611c85" y="318.044145"/>
     <use style="fill:#e24a33;stroke:#e24a33;" x="395.131837" xlink:href="#m4245611c85" y="333.22438"/>
     <use style="fill:#e24a33;stroke:#e24a33;" x="398.527805" xlink:href="#m4245611c85" y="351.440662"/>
     <use style="fill:#e24a33;stroke:#e24a33;" x="401.923773" xlink:href="#m4245611c85" y="326.393275"/>
     <use style="fill:#e24a33;stroke:#e24a33;" x="408.715709" xlink:href="#m4245611c85" y="298.689346"/>
     <use style="fill:#e24a33;stroke:#e24a33;" x="415.507645" xlink:href="#m4245611c85" y="342.712027"/>
     <use style="fill:#e24a33;stroke:#e24a33;" x="418.903614" xlink:href="#m4245611c85" y="350.302145"/>
     <use style="fill:#e24a33;stroke:#e24a33;" x="422.299582" xlink:href="#m4245611c85" y="318.044145"/>
     <use style="fill:#e24a33;stroke:#e24a33;" x="425.69555" xlink:href="#m4245611c85" y="351.440662"/>
     <use style="fill:#e24a33;stroke:#e24a33;" x="429.091518" xlink:href="#m4245611c85" y="352.958686"/>
     <use style="fill:#e24a33;stroke:#e24a33;" x="432.487486" xlink:href="#m4245611c85" y="384.457674"/>
     <use style="fill:#e24a33;stroke:#e24a33;" x="435.883454" xlink:href="#m4245611c85" y="329.429322"/>
     <use style="fill:#e24a33;stroke:#e24a33;" x="439.279422" xlink:href="#m4245611c85" y="327.152286"/>
     <use style="fill:#e24a33;stroke:#e24a33;" x="442.67539" xlink:href="#m4245611c85" y="317.664639"/>
     <use style="fill:#e24a33;stroke:#e24a33;" x="449.467326" xlink:href="#m4245611c85" y="348.784121"/>
     <use style="fill:#e24a33;stroke:#e24a33;" x="452.863294" xlink:href="#m4245611c85" y="313.490075"/>
     <use style="fill:#e24a33;stroke:#e24a33;" x="456.259262" xlink:href="#m4245611c85" y="340.814498"/>
     <use style="fill:#e24a33;stroke:#e24a33;" x="459.65523" xlink:href="#m4245611c85" y="366.241392"/>
     <use style="fill:#e24a33;stroke:#e24a33;" x="463.051198" xlink:href="#m4245611c85" y="330.188333"/>
     <use style="fill:#e24a33;stroke:#e24a33;" x="466.447166" xlink:href="#m4245611c85" y="307.797487"/>
     <use style="fill:#e24a33;stroke:#e24a33;" x="469.843134" xlink:href="#m4245611c85" y="328.67031"/>
     <use style="fill:#e24a33;stroke:#e24a33;" x="473.239102" xlink:href="#m4245611c85" y="352.199674"/>
     <use style="fill:#e24a33;stroke:#e24a33;" x="476.63507" xlink:href="#m4245611c85" y="321.839204"/>
     <use style="fill:#e24a33;stroke:#e24a33;" x="480.031038" xlink:href="#m4245611c85" y="346.507086"/>
     <use style="fill:#e24a33;stroke:#e24a33;" x="483.427006" xlink:href="#m4245611c85" y="312.351557"/>
     <use style="fill:#e24a33;stroke:#e24a33;" x="486.822975" xlink:href="#m4245611c85" y="317.285134"/>
     <use style="fill:#e24a33;stroke:#e24a33;" x="490.218943" xlink:href="#m4245611c85" y="313.869581"/>
     <use style="fill:#e24a33;stroke:#e24a33;" x="493.614911" xlink:href="#m4245611c85" y="362.446333"/>
     <use style="fill:#e24a33;stroke:#e24a33;" x="497.010879" xlink:href="#m4245611c85" y="344.230051"/>
     <use style="fill:#e24a33;stroke:#e24a33;" x="500.406847" xlink:href="#m4245611c85" y="342.332521"/>
     <use style="fill:#e24a33;stroke:#e24a33;" x="507.198783" xlink:href="#m4245611c85" y="337.019439"/>
     <use style="fill:#e24a33;stroke:#e24a33;" x="513.990719" xlink:href="#m4245611c85" y="298.689346"/>
     <use style="fill:#e24a33;stroke:#e24a33;" x="517.386687" xlink:href="#m4245611c85" y="324.495745"/>
     <use style="fill:#e24a33;stroke:#e24a33;" x="524.178623" xlink:href="#m4245611c85" y="331.706357"/>
     <use style="fill:#e24a33;stroke:#e24a33;" x="527.574591" xlink:href="#m4245611c85" y="359.410286"/>
     <use style="fill:#e24a33;stroke:#e24a33;" x="530.970559" xlink:href="#m4245611c85" y="337.398945"/>
     <use style="fill:#e24a33;stroke:#e24a33;" x="534.366527" xlink:href="#m4245611c85" y="331.326851"/>
     <use style="fill:#e24a33;stroke:#e24a33;" x="537.762495" xlink:href="#m4245611c85" y="352.57918"/>
     <use style="fill:#e24a33;stroke:#e24a33;" x="541.158463" xlink:href="#m4245611c85" y="332.085863"/>
     <use style="fill:#e24a33;stroke:#e24a33;" x="544.554431" xlink:href="#m4245611c85" y="371.93398"/>
     <use style="fill:#e24a33;stroke:#e24a33;" x="547.950399" xlink:href="#m4245611c85" y="357.512756"/>
     <use style="fill:#e24a33;stroke:#e24a33;" x="551.346367" xlink:href="#m4245611c85" y="331.706357"/>
     <use style="fill:#e24a33;stroke:#e24a33;" x="554.742335" xlink:href="#m4245611c85" y="310.833534"/>
     <use style="fill:#e24a33;stroke:#e24a33;" x="558.138304" xlink:href="#m4245611c85" y="341.57351"/>
     <use style="fill:#e24a33;stroke:#e24a33;" x="561.534272" xlink:href="#m4245611c85" y="353.338192"/>
     <use style="fill:#e24a33;stroke:#e24a33;" x="564.93024" xlink:href="#m4245611c85" y="334.362898"/>
     <use style="fill:#e24a33;stroke:#e24a33;" x="568.326208" xlink:href="#m4245611c85" y="333.22438"/>
     <use style="fill:#e24a33;stroke:#e24a33;" x="575.118144" xlink:href="#m4245611c85" y="297.930334"/>
     <use style="fill:#e24a33;stroke:#e24a33;" x="578.514112" xlink:href="#m4245611c85" y="333.603886"/>
     <use style="fill:#e24a33;stroke:#e24a33;" x="581.91008" xlink:href="#m4245611c85" y="331.706357"/>
     <use style="fill:#e24a33;stroke:#e24a33;" x="585.306048" xlink:href="#m4245611c85" y="331.706357"/>
     <use style="fill:#e24a33;stroke:#e24a33;" x="588.702016" xlink:href="#m4245611c85" y="352.958686"/>
     <use style="fill:#e24a33;stroke:#e24a33;" x="592.097984" xlink:href="#m4245611c85" y="364.723368"/>
     <use style="fill:#e24a33;stroke:#e24a33;" x="595.493952" xlink:href="#m4245611c85" y="330.947345"/>
     <use style="fill:#e24a33;stroke:#e24a33;" x="598.88992" xlink:href="#m4245611c85" y="305.520451"/>
     <use style="fill:#e24a33;stroke:#e24a33;" x="602.285888" xlink:href="#m4245611c85" y="315.008098"/>
     <use style="fill:#e24a33;stroke:#e24a33;" x="605.681856" xlink:href="#m4245611c85" y="299.827863"/>
     <use style="fill:#e24a33;stroke:#e24a33;" x="609.077824" xlink:href="#m4245611c85" y="335.501416"/>
     <use style="fill:#e24a33;stroke:#e24a33;" x="612.473792" xlink:href="#m4245611c85" y="330.567839"/>
     <use style="fill:#e24a33;stroke:#e24a33;" x="615.86976" xlink:href="#m4245611c85" y="296.41231"/>
     <use style="fill:#e24a33;stroke:#e24a33;" x="619.265728" xlink:href="#m4245611c85" y="330.188333"/>
     <use style="fill:#e24a33;stroke:#e24a33;" x="626.057665" xlink:href="#m4245611c85" y="337.019439"/>
     <use style="fill:#e24a33;stroke:#e24a33;" x="629.453633" xlink:href="#m4245611c85" y="340.434992"/>
     <use style="fill:#e24a33;stroke:#e24a33;" x="632.849601" xlink:href="#m4245611c85" y="334.742404"/>
     <use style="fill:#e24a33;stroke:#e24a33;" x="636.245569" xlink:href="#m4245611c85" y="349.543133"/>
     <use style="fill:#e24a33;stroke:#e24a33;" x="639.641537" xlink:href="#m4245611c85" y="330.567839"/>
     <use style="fill:#e24a33;stroke:#e24a33;" x="643.037505" xlink:href="#m4245611c85" y="330.188333"/>
     <use style="fill:#e24a33;stroke:#e24a33;" x="649.829441" xlink:href="#m4245611c85" y="329.049816"/>
     <use style="fill:#e24a33;stroke:#e24a33;" x="653.225409" xlink:href="#m4245611c85" y="341.57351"/>
     <use style="fill:#e24a33;stroke:#e24a33;" x="660.017345" xlink:href="#m4245611c85" y="339.67598"/>
     <use style="fill:#e24a33;stroke:#e24a33;" x="663.413313" xlink:href="#m4245611c85" y="330.188333"/>
     <use style="fill:#e24a33;stroke:#e24a33;" x="666.809281" xlink:href="#m4245611c85" y="346.12758"/>
     <use style="fill:#e24a33;stroke:#e24a33;" x="670.205249" xlink:href="#m4245611c85" y="338.157957"/>
     <use style="fill:#e24a33;stroke:#e24a33;" x="673.601217" xlink:href="#m4245611c85" y="333.983392"/>
     <use style="fill:#e24a33;stroke:#e24a33;" x="676.997185" xlink:href="#m4245611c85" y="350.302145"/>
     <use style="fill:#e24a33;stroke:#e24a33;" x="683.789121" xlink:href="#m4245611c85" y="336.260427"/>
     <use style="fill:#e24a33;stroke:#e24a33;" x="687.185089" xlink:href="#m4245611c85" y="353.717698"/>
     <use style="fill:#e24a33;stroke:#e24a33;" x="693.977025" xlink:href="#m4245611c85" y="340.055486"/>
     <use style="fill:#e24a33;stroke:#e24a33;" x="697.372994" xlink:href="#m4245611c85" y="335.12191"/>
     <use style="fill:#e24a33;stroke:#e24a33;" x="700.768962" xlink:href="#m4245611c85" y="337.398945"/>
     <use style="fill:#e24a33;stroke:#e24a33;" x="704.16493" xlink:href="#m4245611c85" y="335.12191"/>
     <use style="fill:#e24a33;stroke:#e24a33;" x="707.560898" xlink:href="#m4245611c85" y="354.097204"/>
     <use style="fill:#e24a33;stroke:#e24a33;" x="710.956866" xlink:href="#m4245611c85" y="344.230051"/>
     <use style="fill:#e24a33;stroke:#e24a33;" x="714.352834" xlink:href="#m4245611c85" y="351.440662"/>
     <use style="fill:#e24a33;stroke:#e24a33;" x="721.14477" xlink:href="#m4245611c85" y="315.387604"/>
     <use style="fill:#e24a33;stroke:#e24a33;" x="724.540738" xlink:href="#m4245611c85" y="326.393275"/>
     <use style="fill:#e24a33;stroke:#e24a33;" x="727.936706" xlink:href="#m4245611c85" y="332.085863"/>
     <use style="fill:#e24a33;stroke:#e24a33;" x="731.332674" xlink:href="#m4245611c85" y="321.080192"/>
     <use style="fill:#e24a33;stroke:#e24a33;" x="734.728642" xlink:href="#m4245611c85" y="351.820168"/>
     <use style="fill:#e24a33;stroke:#e24a33;" x="738.12461" xlink:href="#m4245611c85" y="326.393275"/>
     <use style="fill:#e24a33;stroke:#e24a33;" x="748.312514" xlink:href="#m4245611c85" y="350.302145"/>
     <use style="fill:#e24a33;stroke:#e24a33;" x="751.708482" xlink:href="#m4245611c85" y="333.22438"/>
     <use style="fill:#e24a33;stroke:#e24a33;" x="755.10445" xlink:href="#m4245611c85" y="330.567839"/>
     <use style="fill:#e24a33;stroke:#e24a33;" x="758.500418" xlink:href="#m4245611c85" y="335.12191"/>
     <use style="fill:#e24a33;stroke:#e24a33;" x="761.896386" xlink:href="#m4245611c85" y="325.254757"/>
     <use style="fill:#e24a33;stroke:#e24a33;" x="768.688323" xlink:href="#m4245611c85" y="387.114215"/>
     <use style="fill:#e24a33;stroke:#e24a33;" x="772.084291" xlink:href="#m4245611c85" y="368.518427"/>
     <use style="fill:#e24a33;stroke:#e24a33;" x="778.876227" xlink:href="#m4245611c85" y="335.501416"/>
     <use style="fill:#e24a33;stroke:#e24a33;" x="782.272195" xlink:href="#m4245611c85" y="350.681651"/>
     <use style="fill:#e24a33;stroke:#e24a33;" x="785.668163" xlink:href="#m4245611c85" y="322.977722"/>
     <use style="fill:#e24a33;stroke:#e24a33;" x="789.064131" xlink:href="#m4245611c85" y="392.806803"/>
     <use style="fill:#e24a33;stroke:#e24a33;" x="792.460099" xlink:href="#m4245611c85" y="549.163224"/>
     <use style="fill:#e24a33;stroke:#e24a33;" x="799.252035" xlink:href="#m4245611c85" y="527.910895"/>
     <use style="fill:#e24a33;stroke:#e24a33;" x="806.043971" xlink:href="#m4245611c85" y="334.362898"/>
     <use style="fill:#e24a33;stroke:#e24a33;" x="809.439939" xlink:href="#m4245611c85" y="308.176993"/>
     <use style="fill:#e24a33;stroke:#e24a33;" x="812.835907" xlink:href="#m4245611c85" y="333.983392"/>
     <use style="fill:#e24a33;stroke:#e24a33;" x="816.231875" xlink:href="#m4245611c85" y="360.548803"/>
     <use style="fill:#e24a33;stroke:#e24a33;" x="819.627843" xlink:href="#m4245611c85" y="315.008098"/>
     <use style="fill:#e24a33;stroke:#e24a33;" x="823.023811" xlink:href="#m4245611c85" y="327.152286"/>
     <use style="fill:#e24a33;stroke:#e24a33;" x="826.419779" xlink:href="#m4245611c85" y="330.188333"/>
     <use style="fill:#e24a33;stroke:#e24a33;" x="829.815747" xlink:href="#m4245611c85" y="322.21871"/>
     <use style="fill:#e24a33;stroke:#e24a33;" x="833.211715" xlink:href="#m4245611c85" y="344.989063"/>
     <use style="fill:#e24a33;stroke:#e24a33;" x="836.607684" xlink:href="#m4245611c85" y="325.634263"/>
     <use style="fill:#e24a33;stroke:#e24a33;" x="840.003652" xlink:href="#m4245611c85" y="332.844875"/>
     <use style="fill:#e24a33;stroke:#e24a33;" x="843.39962" xlink:href="#m4245611c85" y="365.48238"/>
     <use style="fill:#e24a33;stroke:#e24a33;" x="846.795588" xlink:href="#m4245611c85" y="321.080192"/>
     <use style="fill:#e24a33;stroke:#e24a33;" x="850.191556" xlink:href="#m4245611c85" y="375.349533"/>
     <use style="fill:#e24a33;stroke:#e24a33;" x="856.983492" xlink:href="#m4245611c85" y="357.892262"/>
     <use style="fill:#e24a33;stroke:#e24a33;" x="860.37946" xlink:href="#m4245611c85" y="324.495745"/>
     <use style="fill:#e24a33;stroke:#e24a33;" x="863.775428" xlink:href="#m4245611c85" y="335.501416"/>
     <use style="fill:#e24a33;stroke:#e24a33;" x="867.171396" xlink:href="#m4245611c85" y="323.736734"/>
     <use style="fill:#e24a33;stroke:#e24a33;" x="870.567364" xlink:href="#m4245611c85" y="367.000403"/>
     <use style="fill:#e24a33;stroke:#e24a33;" x="873.963332" xlink:href="#m4245611c85" y="354.476709"/>
     <use style="fill:#e24a33;stroke:#e24a33;" x="880.755268" xlink:href="#m4245611c85" y="350.681651"/>
     <use style="fill:#e24a33;stroke:#e24a33;" x="884.151236" xlink:href="#m4245611c85" y="338.157957"/>
     <use style="fill:#e24a33;stroke:#e24a33;" x="887.547204" xlink:href="#m4245611c85" y="335.12191"/>
     <use style="fill:#e24a33;stroke:#e24a33;" x="890.943172" xlink:href="#m4245611c85" y="359.03078"/>
     <use style="fill:#e24a33;stroke:#e24a33;" x="894.33914" xlink:href="#m4245611c85" y="336.639933"/>
     <use style="fill:#e24a33;stroke:#e24a33;" x="901.131076" xlink:href="#m4245611c85" y="338.537463"/>
     <use style="fill:#e24a33;stroke:#e24a33;" x="907.923013" xlink:href="#m4245611c85" y="333.603886"/>
     <use style="fill:#e24a33;stroke:#e24a33;" x="911.318981" xlink:href="#m4245611c85" y="338.916969"/>
     <use style="fill:#e24a33;stroke:#e24a33;" x="914.714949" xlink:href="#m4245611c85" y="344.989063"/>
     <use style="fill:#e24a33;stroke:#e24a33;" x="918.110917" xlink:href="#m4245611c85" y="294.894287"/>
     <use style="fill:#e24a33;stroke:#e24a33;" x="921.506885" xlink:href="#m4245611c85" y="336.639933"/>
     <use style="fill:#e24a33;stroke:#e24a33;" x="924.902853" xlink:href="#m4245611c85" y="333.603886"/>
     <use style="fill:#e24a33;stroke:#e24a33;" x="928.298821" xlink:href="#m4245611c85" y="308.936004"/>
     <use style="fill:#e24a33;stroke:#e24a33;" x="931.694789" xlink:href="#m4245611c85" y="348.784121"/>
     <use style="fill:#e24a33;stroke:#e24a33;" x="935.090757" xlink:href="#m4245611c85" y="345.748074"/>
     <use style="fill:#e24a33;stroke:#e24a33;" x="938.486725" xlink:href="#m4245611c85" y="314.249087"/>
     <use style="fill:#e24a33;stroke:#e24a33;" x="941.882693" xlink:href="#m4245611c85" y="335.12191"/>
     <use style="fill:#e24a33;stroke:#e24a33;" x="948.674629" xlink:href="#m4245611c85" y="327.531792"/>
     <use style="fill:#e24a33;stroke:#e24a33;" x="952.070597" xlink:href="#m4245611c85" y="337.019439"/>
     <use style="fill:#e24a33;stroke:#e24a33;" x="955.466565" xlink:href="#m4245611c85" y="356.753745"/>
     <use style="fill:#e24a33;stroke:#e24a33;" x="958.862533" xlink:href="#m4245611c85" y="333.603886"/>
     <use style="fill:#e24a33;stroke:#e24a33;" x="962.258501" xlink:href="#m4245611c85" y="344.989063"/>
     <use style="fill:#e24a33;stroke:#e24a33;" x="965.654469" xlink:href="#m4245611c85" y="364.343862"/>
     <use style="fill:#e24a33;stroke:#e24a33;" x="969.050437" xlink:href="#m4245611c85" y="305.520451"/>
     <use style="fill:#e24a33;stroke:#e24a33;" x="972.446405" xlink:href="#m4245611c85" y="356.374239"/>
     <use style="fill:#e24a33;stroke:#e24a33;" x="975.842374" xlink:href="#m4245611c85" y="340.814498"/>
     <use style="fill:#e24a33;stroke:#e24a33;" x="979.238342" xlink:href="#m4245611c85" y="358.271768"/>
     <use style="fill:#e24a33;stroke:#e24a33;" x="982.63431" xlink:href="#m4245611c85" y="337.398945"/>
     <use style="fill:#e24a33;stroke:#e24a33;" x="986.030278" xlink:href="#m4245611c85" y="335.880922"/>
     <use style="fill:#e24a33;stroke:#e24a33;" x="992.822214" xlink:href="#m4245611c85" y="349.163627"/>
     <use style="fill:#e24a33;stroke:#e24a33;" x="996.218182" xlink:href="#m4245611c85" y="366.241392"/>
    </g>
   </g>
   <g id="patch_3">
    <path d="M 144 567 
L 144 77.76 
" style="fill:none;stroke:#ffffff;stroke-linecap:square;stroke-linejoin:miter;"/>
   </g>
   <g id="patch_4">
    <path d="M 1036.8 567 
L 1036.8 77.76 
" style="fill:none;stroke:#ffffff;stroke-linecap:square;stroke-linejoin:miter;"/>
   </g>
   <g id="patch_5">
    <path d="M 144 567 
L 1036.8 567 
" style="fill:none;stroke:#ffffff;stroke-linecap:square;stroke-linejoin:miter;"/>
   </g>
   <g id="patch_6">
    <path d="M 144 77.76 
L 1036.8 77.76 
" style="fill:none;stroke:#ffffff;stroke-linecap:square;stroke-linejoin:miter;"/>
   </g>
   <g id="text_16">
    <!-- reaction time vs. trails (errors removed) -->
    <defs>
     <path d="M 2.984375 54.6875 
L 12.5 54.6875 
L 29.59375 8.796875 
L 46.6875 54.6875 
L 56.203125 54.6875 
L 35.6875 0 
L 23.484375 0 
z
" id="DejaVuSans-118"/>
     <path d="M 10.6875 12.40625 
L 21 12.40625 
L 21 0 
L 10.6875 0 
z
" id="DejaVuSans-46"/>
     <path d="M 31 75.875 
Q 24.46875 64.65625 21.28125 53.65625 
Q 18.109375 42.671875 18.109375 31.390625 
Q 18.109375 20.125 21.3125 9.0625 
Q 24.515625 -2 31 -13.1875 
L 23.1875 -13.1875 
Q 15.875 -1.703125 12.234375 9.375 
Q 8.59375 20.453125 8.59375 31.390625 
Q 8.59375 42.28125 12.203125 53.3125 
Q 15.828125 64.359375 23.1875 75.875 
z
" id="DejaVuSans-40"/>
     <path d="M 45.40625 46.390625 
L 45.40625 75.984375 
L 54.390625 75.984375 
L 54.390625 0 
L 45.40625 0 
L 45.40625 8.203125 
Q 42.578125 3.328125 38.25 0.953125 
Q 33.9375 -1.421875 27.875 -1.421875 
Q 17.96875 -1.421875 11.734375 6.484375 
Q 5.515625 14.40625 5.515625 27.296875 
Q 5.515625 40.1875 11.734375 48.09375 
Q 17.96875 56 27.875 56 
Q 33.9375 56 38.25 53.625 
Q 42.578125 51.265625 45.40625 46.390625 
z
M 14.796875 27.296875 
Q 14.796875 17.390625 18.875 11.75 
Q 22.953125 6.109375 30.078125 6.109375 
Q 37.203125 6.109375 41.296875 11.75 
Q 45.40625 17.390625 45.40625 27.296875 
Q 45.40625 37.203125 41.296875 42.84375 
Q 37.203125 48.484375 30.078125 48.484375 
Q 22.953125 48.484375 18.875 42.84375 
Q 14.796875 37.203125 14.796875 27.296875 
z
" id="DejaVuSans-100"/>
     <path d="M 8.015625 75.875 
L 15.828125 75.875 
Q 23.140625 64.359375 26.78125 53.3125 
Q 30.421875 42.28125 30.421875 31.390625 
Q 30.421875 20.453125 26.78125 9.375 
Q 23.140625 -1.703125 15.828125 -13.1875 
L 8.015625 -13.1875 
Q 14.5 -2 17.703125 9.0625 
Q 20.90625 20.125 20.90625 31.390625 
Q 20.90625 42.671875 17.703125 53.65625 
Q 14.5 64.65625 8.015625 75.875 
z
" id="DejaVuSans-41"/>
    </defs>
    <g transform="translate(272.15955 71.76)scale(0.3168 -0.3168)">
     <use xlink:href="#DejaVuSans-114"/>
     <use x="41.082031" xlink:href="#DejaVuSans-101"/>
     <use x="102.605469" xlink:href="#DejaVuSans-97"/>
     <use x="163.884766" xlink:href="#DejaVuSans-99"/>
     <use x="218.865234" xlink:href="#DejaVuSans-116"/>
     <use x="258.074219" xlink:href="#DejaVuSans-105"/>
     <use x="285.857422" xlink:href="#DejaVuSans-111"/>
     <use x="347.039062" xlink:href="#DejaVuSans-110"/>
     <use x="410.417969" xlink:href="#DejaVuSans-32"/>
     <use x="442.205078" xlink:href="#DejaVuSans-116"/>
     <use x="481.414062" xlink:href="#DejaVuSans-105"/>
     <use x="509.197266" xlink:href="#DejaVuSans-109"/>
     <use x="606.609375" xlink:href="#DejaVuSans-101"/>
     <use x="668.132812" xlink:href="#DejaVuSans-32"/>
     <use x="699.919922" xlink:href="#DejaVuSans-118"/>
     <use x="759.099609" xlink:href="#DejaVuSans-115"/>
     <use x="811.199219" xlink:href="#DejaVuSans-46"/>
     <use x="842.986328" xlink:href="#DejaVuSans-32"/>
     <use x="874.773438" xlink:href="#DejaVuSans-116"/>
     <use x="913.982422" xlink:href="#DejaVuSans-114"/>
     <use x="955.095703" xlink:href="#DejaVuSans-97"/>
     <use x="1016.375" xlink:href="#DejaVuSans-105"/>
     <use x="1044.158203" xlink:href="#DejaVuSans-108"/>
     <use x="1071.941406" xlink:href="#DejaVuSans-115"/>
     <use x="1124.041016" xlink:href="#DejaVuSans-32"/>
     <use x="1155.828125" xlink:href="#DejaVuSans-40"/>
     <use x="1194.841797" xlink:href="#DejaVuSans-101"/>
     <use x="1256.365234" xlink:href="#DejaVuSans-114"/>
     <use x="1297.462891" xlink:href="#DejaVuSans-114"/>
     <use x="1338.544922" xlink:href="#DejaVuSans-111"/>
     <use x="1399.726562" xlink:href="#DejaVuSans-114"/>
     <use x="1440.839844" xlink:href="#DejaVuSans-115"/>
     <use x="1492.939453" xlink:href="#DejaVuSans-32"/>
     <use x="1524.726562" xlink:href="#DejaVuSans-114"/>
     <use x="1565.808594" xlink:href="#DejaVuSans-101"/>
     <use x="1627.332031" xlink:href="#DejaVuSans-109"/>
     <use x="1724.744141" xlink:href="#DejaVuSans-111"/>
     <use x="1785.925781" xlink:href="#DejaVuSans-118"/>
     <use x="1845.105469" xlink:href="#DejaVuSans-101"/>
     <use x="1906.628906" xlink:href="#DejaVuSans-100"/>
     <use x="1970.105469" xlink:href="#DejaVuSans-41"/>
    </g>
   </g>
  </g>
 </g>
 <defs>
  <clipPath id="pcca6381c50">
   <rect height="489.24" width="892.8" x="144" y="77.76"/>
  </clipPath>
 </defs>
</svg>
